<svg version="1.1" xmlns="http://www.w3.org/2000/svg" viewBox="0 0 1215.0399169921875 1017.3274190219398" width="1215.0399169921875" height="1017.3274190219398">
  <!-- svg-source:excalidraw -->
  
  <defs>
    <style class="style-fonts">
      @font-face {
        font-family: "Virgil";
        src: url("https://excalidraw.com/Virgil.woff2");
      }
      @font-face {
        font-family: "Cascadia";
        src: url("https://excalidraw.com/Cascadia.woff2");
      }
      @font-face {
        font-family: "Assistant";
        src: url("https://excalidraw.com/Assistant-Regular.woff2");
      }
    </style>
    
  </defs>
  <rect x="0" y="0" width="1215.0399169921875" height="1017.3274190219398" fill="#ffffff"></rect><g transform="translate(318 42.327419021939846) rotate(0 5.379997253417969 12.5)"><text x="0" y="0" font-family="Virgil, Segoe UI Emoji" font-size="20px" fill="#1e1e1e" text-anchor="start" style="white-space: pre;" direction="ltr" dominant-baseline="text-before-edge">7</text></g><g transform="translate(436 173.32741902193985) rotate(0 14.769989013671875 12.5)"><text x="0" y="0" font-family="Virgil, Segoe UI Emoji" font-size="20px" fill="#1e1e1e" text-anchor="start" style="white-space: pre;" direction="ltr" dominant-baseline="text-before-edge">28</text></g><g transform="translate(546 280.3274190219398) rotate(0 13.519989013671875 12.5)"><text x="0" y="0" font-family="Virgil, Segoe UI Emoji" font-size="20px" fill="#1e1e1e" text-anchor="start" style="white-space: pre;" direction="ltr" dominant-baseline="text-before-edge">42</text></g><g transform="translate(658 382.3274190219398) rotate(0 8.889991760253906 12.5)"><text x="0" y="0" font-family="Virgil, Segoe UI Emoji" font-size="20px" fill="#1e1e1e" text-anchor="start" style="white-space: pre;" direction="ltr" dominant-baseline="text-before-edge">51</text></g><g transform="translate(124 167.32741902193985) rotate(0 2.7099990844726562 12.5)"><text x="0" y="0" font-family="Virgil, Segoe UI Emoji" font-size="20px" fill="#1e1e1e" text-anchor="start" style="white-space: pre;" direction="ltr" dominant-baseline="text-before-edge">1</text></g><g transform="translate(236 300.3274190219398) rotate(0 6.80999755859375 12.5)"><text x="0" y="0" font-family="Virgil, Segoe UI Emoji" font-size="20px" fill="#1e1e1e" text-anchor="start" style="white-space: pre;" direction="ltr" dominant-baseline="text-before-edge">3</text></g><g transform="translate(757 472.3274190219398) rotate(0 17.599990844726562 12.5)"><text x="0" y="0" font-family="Virgil, Segoe UI Emoji" font-size="20px" fill="#1e1e1e" text-anchor="start" style="white-space: pre;" direction="ltr" dominant-baseline="text-before-edge">1991</text></g><g transform="translate(10 307.3274190219398) rotate(0 13.699989318847656 12.5)"><text x="0" y="0" font-family="Virgil, Segoe UI Emoji" font-size="20px" fill="#1e1e1e" text-anchor="start" style="white-space: pre;" direction="ltr" dominant-baseline="text-before-edge">-10</text></g><g transform="translate(155 422.3274190219398) rotate(0 7.1199951171875 12.5)"><text x="0" y="0" font-family="Virgil, Segoe UI Emoji" font-size="20px" fill="#1e1e1e" text-anchor="start" style="white-space: pre;" direction="ltr" dominant-baseline="text-before-edge">2</text></g><g transform="translate(344 301.3274190219398) rotate(0 8.799995422363281 12.5)"><text x="0" y="0" font-family="Virgil, Segoe UI Emoji" font-size="20px" fill="#1e1e1e" text-anchor="start" style="white-space: pre;" direction="ltr" dominant-baseline="text-before-edge">19</text></g><g stroke-linecap="round"><g transform="translate(293 64.32741902193985) rotate(0 -70 51.5)"><path d="M0.53 -0.9 C-22.41 16.15, -115.53 85.6, -138.81 102.86 M-0.64 1.24 C-23.55 18.43, -115.99 87.23, -139.13 104.33" stroke="#f08c00" stroke-width="2" fill="none"></path></g></g><mask></mask><g stroke-linecap="round"><g transform="translate(337 68.32741902193985) rotate(0 50.5 50.5)"><path d="M-1.07 -0.17 C15.84 16.66, 85.17 83.92, 102.1 100.72 M0.58 -1.31 C17.36 15.72, 85.24 84.93, 101.74 102.11" stroke="#f08c00" stroke-width="2" fill="none"></path></g></g><mask></mask><g stroke-linecap="round"><g transform="translate(476 202.32741902193985) rotate(0 32 32.5)"><path d="M0.81 0.47 C11.15 11.36, 52.63 53.42, 63.09 64.34 M-0.23 -0.34 C10.4 10.79, 54.86 54.78, 65.32 65.54" stroke="#f08c00" stroke-width="2" fill="none"></path></g></g><mask></mask><g stroke-linecap="round"><g transform="translate(432 199.32741902193985) rotate(0 -32 46)"><path d="M-0.5 -0.81 C-10.87 14.52, -52.54 76.72, -62.98 92.37 M1.44 1.38 C-8.94 16.31, -52.57 75.45, -63.4 90.45" stroke="#f08c00" stroke-width="2" fill="none"></path></g></g><mask></mask><g stroke-linecap="round"><g transform="translate(580 304.3274190219398) rotate(0 38.5 36)"><path d="M0.99 -1.04 C13.89 10.74, 64.26 59.5, 76.95 71.71 M0.04 1.03 C12.82 13.51, 63.24 60.99, 75.97 73.09" stroke="#f08c00" stroke-width="2" fill="none"></path></g></g><mask></mask><g stroke-linecap="round"><g transform="translate(680 403.3274190219398) rotate(0 31.5 30)"><path d="M-0.14 0.46 C10.22 10.46, 51.52 49.61, 61.98 59.73 M-1.67 -0.34 C9.07 9.86, 53.6 51.16, 64.16 61.12" stroke="#f08c00" stroke-width="2" fill="none"></path></g></g><mask></mask><g stroke-linecap="round"><g transform="translate(107 196.32741902193985) rotate(0 -36 46.5)"><path d="M1.12 0.11 C-10.83 15.79, -60.43 78.42, -72.42 94.01 M0.25 -0.88 C-11.83 14.5, -61.71 76.99, -73.58 92.42" stroke="#f08c00" stroke-width="2" fill="none"></path></g></g><mask></mask><g stroke-linecap="round"><g transform="translate(143 198.32741902193985) rotate(0 41.5 47)"><path d="M-0.71 -0.22 C13.07 15.43, 68.83 78.07, 82.8 93.88 M1.11 -1.39 C14.71 14.47, 68.2 79.69, 81.74 95.35" stroke="#f08c00" stroke-width="2" fill="none"></path></g></g><mask></mask><g stroke-linecap="round"><g transform="translate(226 331.3274190219398) rotate(0 -28 39.5)"><path d="M-1.01 0.46 C-10.33 13.76, -46.39 66.06, -55.65 79.03 M0.67 -0.35 C-8.81 13.22, -46.7 67.32, -56.41 80.58" stroke="#f08c00" stroke-width="2" fill="none"></path></g></g><mask></mask><g transform="translate(61 426.3274190219398) rotate(0 6.879997253417969 12.5)"><text x="0" y="0" font-family="Virgil, Segoe UI Emoji" font-size="20px" fill="#1e1e1e" text-anchor="start" style="white-space: pre;" direction="ltr" dominant-baseline="text-before-edge">0</text></g><g stroke-linecap="round"><g transform="translate(32 336.3274190219398) rotate(0 16 38)"><path d="M-1.13 -0.23 C4.12 12.36, 26.06 63.62, 31.52 76.16 M0.48 -1.39 C5.52 11.35, 25.28 64.91, 30.32 77.78" stroke="#f08c00" stroke-width="2" fill="none"></path></g></g><mask></mask><g stroke-linecap="round"><g transform="translate(971 10.327419021939846) rotate(0 6 233)"><path d="M-0.21 0.47 C1.64 78.11, 9.78 388, 11.99 465.4 M-1.78 -0.33 C-0.17 77.5, 8.6 388.97, 11.04 466.62" stroke="#f08c00" stroke-width="2" fill="none"></path></g><g transform="translate(971 10.327419021939846) rotate(0 6 233)"><path d="M1.8 443.38 C5.98 452.14, 7.67 462.64, 11.04 466.62 M1.8 443.38 C3.51 447.33, 5.44 453.64, 11.04 466.62" stroke="#f08c00" stroke-width="2" fill="none"></path></g><g transform="translate(971 10.327419021939846) rotate(0 6 233)"><path d="M18.89 442.88 C16.63 451.79, 11.88 462.49, 11.04 466.62 M18.89 442.88 C17.14 446.92, 15.62 453.33, 11.04 466.62" stroke="#f08c00" stroke-width="2" fill="none"></path></g></g><mask></mask><g transform="translate(1024 230.32741902193985) rotate(0 68.22994232177734 12.5)"><text x="0" y="0" font-family="Virgil, Segoe UI Emoji" font-size="20px" fill="#f08c00" text-anchor="start" style="white-space: pre;" direction="ltr" dominant-baseline="text-before-edge">depth = log(n)</text></g><g transform="translate(1019 287.3274190219398) rotate(0 93.01995849609375 37.5)"><text x="0" y="0" font-family="Virgil, Segoe UI Emoji" font-size="20px" fill="#1e1e1e" text-anchor="start" style="white-space: pre;" direction="ltr" dominant-baseline="text-before-edge">n = 1K  cost = 10</text><text x="0" y="25" font-family="Virgil, Segoe UI Emoji" font-size="20px" fill="#1e1e1e" text-anchor="start" style="white-space: pre;" direction="ltr" dominant-baseline="text-before-edge">n = 1M  cost = 20</text><text x="0" y="50" font-family="Virgil, Segoe UI Emoji" font-size="20px" fill="#1e1e1e" text-anchor="start" style="white-space: pre;" direction="ltr" dominant-baseline="text-before-edge">n = 1G  cost = 30</text></g><g transform="translate(179 484.3274190219398) rotate(0 116.90990447998047 12.5)"><text x="0" y="0" font-family="Virgil, Segoe UI Emoji" font-size="20px" fill="#2f9e44" text-anchor="start" style="white-space: pre;" direction="ltr" dominant-baseline="text-before-edge">NB: arbre à rééquilibrer</text></g><g stroke-linecap="round" transform="translate(319 684.3274190219398) rotate(0 227 160)"><path d="M32 0 C174.71 -0.19, 318.52 -0.92, 422 0 M32 0 C149.56 -2.2, 267.15 -2.2, 422 0 M422 0 C443.2 -0.54, 454.01 10.2, 454 32 M422 0 C444.69 1.76, 455.86 8.67, 454 32 M454 32 C452.43 91.1, 452.58 147.59, 454 288 M454 32 C453.73 116.84, 453.87 202.51, 454 288 M454 288 C455.97 311.04, 441.45 320.16, 422 320 M454 288 C453.94 311.03, 442.01 317.87, 422 320 M422 320 C295.93 318.54, 167.69 318.04, 32 320 M422 320 C312.93 317.74, 203.79 317.85, 32 320 M32 320 C9.62 321.33, -1.82 308.7, 0 288 M32 320 C12.92 322.23, -0.04 307.1, 0 288 M0 288 C-2.63 218.8, -1.2 145.68, 0 32 M0 288 C1.65 235.16, 2.11 182.13, 0 32 M0 32 C0.13 10.36, 10.42 -1.4, 32 0 M0 32 C1.6 8.43, 8.5 0.55, 32 0" stroke="#1e1e1e" stroke-width="2" fill="none"></path></g><g transform="translate(407 647.3274190219398) rotate(0 30.189964294433594 12.5)"><text x="0" y="0" font-family="Virgil, Segoe UI Emoji" font-size="20px" fill="#1e1e1e" text-anchor="start" style="white-space: pre;" direction="ltr" dominant-baseline="text-before-edge">movies</text></g><g stroke-linecap="round" transform="translate(91 691.3274190219398) rotate(0 28 158)"><path d="M14 0 C23.23 0.78, 30.27 1.76, 42 0 M14 0 C21.28 0.09, 28.73 -0.99, 42 0 M42 0 C52.05 0.36, 56.55 4.91, 56 14 M42 0 C52.59 -2.29, 57.75 5.38, 56 14 M56 14 C58.71 84.12, 59.12 152.76, 56 302 M56 14 C58.66 100.29, 58.49 187.08, 56 302 M56 302 C57.65 311.82, 49.92 316.27, 42 316 M56 302 C57.2 309.53, 52.43 315.96, 42 316 M42 316 C33.76 315.18, 27.78 315.64, 14 316 M42 316 C31.63 314.92, 21.13 316.29, 14 316 M14 316 C4.01 317.9, 1.35 311.8, 0 302 M14 316 C4.4 316.88, 0.47 309.83, 0 302 M0 302 C0.9 191.03, 1.28 82.91, 0 14 M0 302 C0.98 241.47, 1.66 179.51, 0 14 M0 14 C1.9 6.02, 6.48 1.06, 14 0 M0 14 C-0.61 2.7, 4.35 0.88, 14 0" stroke="#1e1e1e" stroke-width="2" fill="none"></path></g><g transform="translate(93 658.3274190219398) rotate(0 48.24994659423828 12.5)"><text x="0" y="0" font-family="Virgil, Segoe UI Emoji" font-size="20px" fill="#1e1e1e" text-anchor="start" style="white-space: pre;" direction="ltr" dominant-baseline="text-before-edge">pk_movies</text></g><g stroke-linecap="round" transform="translate(848 687.3274190219398) rotate(0 33 138)"><path d="M16.5 0 C21.56 0.18, 28.55 0.3, 49.5 0 M16.5 0 C27.29 0.07, 37.93 -0.96, 49.5 0 M49.5 0 C62.04 1.09, 64.07 5.82, 66 16.5 M49.5 0 C59.99 -0.35, 66.94 4.62, 66 16.5 M66 16.5 C64.68 102.22, 65.45 186.1, 66 259.5 M66 16.5 C65.58 109.22, 65.8 202.89, 66 259.5 M66 259.5 C67.67 269.16, 60.79 277.32, 49.5 276 M66 259.5 C64.33 269.31, 59.97 273.9, 49.5 276 M49.5 276 C44.07 277.66, 35.67 274.1, 16.5 276 M49.5 276 C39.75 277.2, 29.91 276.16, 16.5 276 M16.5 276 C4.25 276.5, 0.71 269.43, 0 259.5 M16.5 276 C7.32 275.47, 2.14 270.88, 0 259.5 M0 259.5 C0.31 172.14, -0.96 85.77, 0 16.5 M0 259.5 C-0.76 200.29, -1.37 142.49, 0 16.5 M0 16.5 C0.65 7.37, 5.06 0.35, 16.5 0 M0 16.5 C1.88 3.42, 7.66 1.92, 16.5 0" stroke="#1e1e1e" stroke-width="2" fill="none"></path></g><g transform="translate(838 651.3274190219398) rotate(0 56.44994354248047 12.5)"><text x="0" y="0" font-family="Virgil, Segoe UI Emoji" font-size="20px" fill="#1e1e1e" text-anchor="start" style="white-space: pre;" direction="ltr" dominant-baseline="text-before-edge">uniq_movies</text></g><g stroke-linecap="round"><g transform="translate(132 728.3274190219398) rotate(0 101.5 51)"><path d="M0.44 -0.21 C33.98 16.68, 168.43 84.34, 202.32 101.52 M-0.79 -1.37 C33.05 15.67, 170.64 85.74, 204.67 102.81" stroke="#2f9e44" stroke-width="2" fill="none"></path></g><g transform="translate(132 728.3274190219398) rotate(0 101.5 51)"><path d="M179.85 99.83 C189.16 99.76, 198.38 103.34, 204.67 102.81 M179.85 99.83 C188.36 102, 197.51 102.74, 204.67 102.81" stroke="#2f9e44" stroke-width="2" fill="none"></path></g><g transform="translate(132 728.3274190219398) rotate(0 101.5 51)"><path d="M187.57 84.57 C193.9 90.47, 200.11 99.98, 204.67 102.81 M187.57 84.57 C193.14 92.42, 199.41 98.86, 204.67 102.81" stroke="#2f9e44" stroke-width="2" fill="none"></path></g></g><mask></mask><g stroke-linecap="round"><g transform="translate(860 739.3274190219398) rotate(0 -57.5 10.5)"><path d="M1 -0.24 C-18 3.23, -95.57 17.28, -114.85 20.69 M0.06 -1.41 C-19.01 2.24, -96.5 18.31, -115.72 22.06" stroke="#2f9e44" stroke-width="2" fill="none"></path></g><g transform="translate(860 739.3274190219398) rotate(0 -57.5 10.5)"><path d="M-94.39 9.03 C-99.69 12.45, -104.71 15.74, -115.72 22.06 M-94.39 9.03 C-100.26 11.54, -103.7 15.83, -115.72 22.06" stroke="#2f9e44" stroke-width="2" fill="none"></path></g><g transform="translate(860 739.3274190219398) rotate(0 -57.5 10.5)"><path d="M-91 25.79 C-97.07 25.39, -102.87 24.83, -115.72 22.06 M-91 25.79 C-97.75 24.34, -101.99 24.69, -115.72 22.06" stroke="#2f9e44" stroke-width="2" fill="none"></path></g></g><mask></mask></svg>